<svg width="37" height="34" viewBox="0 0 37 34" fill="none" xmlns="http://www.w3.org/2000/svg">
<g filter="url(#filter0_d_2106_1767)">
<mask id="mask0_2106_1767" style="mask-type:alpha" maskUnits="userSpaceOnUse" x="0" y="0" width="30" height="30">
<rect width="30" height="30" fill="#D9D9D9"/>
</mask>
<g mask="url(#mask0_2106_1767)">
<path d="M25.1875 16.25H11.25C10.8958 16.25 10.599 16.1302 10.3594 15.8906C10.1198 15.651 10 15.3542 10 15C10 14.6458 10.1198 14.349 10.3594 14.1094C10.599 13.8698 10.8958 13.75 11.25 13.75H25.1875L24.125 12.6875C23.875 12.4375 23.7552 12.1458 23.7656 11.8125C23.776 11.4792 23.8958 11.1875 24.125 10.9375C24.375 10.6875 24.6719 10.5573 25.0156 10.5469C25.3594 10.5365 25.6562 10.6562 25.9062 10.9062L29.125 14.125C29.375 14.375 29.5 14.6667 29.5 15C29.5 15.3333 29.375 15.625 29.125 15.875L25.9062 19.0938C25.6562 19.3438 25.3594 19.4635 25.0156 19.4531C24.6719 19.4427 24.375 19.3125 24.125 19.0625C23.8958 18.8125 23.776 18.5208 23.7656 18.1875C23.7552 17.8542 23.875 17.5625 24.125 17.3125L25.1875 16.25ZM18.75 10V6.25H6.25V23.75H18.75V20C18.75 19.6458 18.8698 19.349 19.1094 19.1094C19.349 18.8698 19.6458 18.75 20 18.75C20.3542 18.75 20.651 18.8698 20.8906 19.1094C21.1302 19.349 21.25 19.6458 21.25 20V23.75C21.25 24.4375 21.0052 25.026 20.5156 25.5156C20.026 26.0052 19.4375 26.25 18.75 26.25H6.25C5.5625 26.25 4.97396 26.0052 4.48438 25.5156C3.99479 25.026 3.75 24.4375 3.75 23.75V6.25C3.75 5.5625 3.99479 4.97396 4.48438 4.48438C4.97396 3.99479 5.5625 3.75 6.25 3.75H18.75C19.4375 3.75 20.026 3.99479 20.5156 4.48438C21.0052 4.97396 21.25 5.5625 21.25 6.25V10C21.25 10.3542 21.1302 10.651 20.8906 10.8906C20.651 11.1302 20.3542 11.25 20 11.25C19.6458 11.25 19.349 11.1302 19.1094 10.8906C18.8698 10.651 18.75 10.3542 18.75 10Z" fill="#E71C4F"/>
</g>
</g>
<defs>
<filter id="filter0_d_2106_1767" x="2.25" y="2.25" width="34.75" height="31.5" filterUnits="userSpaceOnUse" color-interpolation-filters="sRGB">
<feFlood flood-opacity="0" result="BackgroundImageFix"/>
<feColorMatrix in="SourceAlpha" type="matrix" values="0 0 0 0 0 0 0 0 0 0 0 0 0 0 0 0 0 0 127 0" result="hardAlpha"/>
<feOffset dx="3" dy="3"/>
<feGaussianBlur stdDeviation="2.25"/>
<feComposite in2="hardAlpha" operator="out"/>
<feColorMatrix type="matrix" values="0 0 0 0 0 0 0 0 0 0 0 0 0 0 0 0 0 0 0.35 0"/>
<feBlend mode="normal" in2="BackgroundImageFix" result="effect1_dropShadow_2106_1767"/>
<feBlend mode="normal" in="SourceGraphic" in2="effect1_dropShadow_2106_1767" result="shape"/>
</filter>
</defs>
</svg>
