<svg width="25" height="32" viewBox="0 0 25 32" fill="none" xmlns="http://www.w3.org/2000/svg">
<path d="M3.125 32C2.26562 32 1.52995 31.6867 0.917969 31.06C0.30599 30.4333 0 29.68 0 28.8V25.64C0 25.1067 0.117188 24.6133 0.351562 24.16C0.585938 23.7067 0.898438 23.32 1.28906 23C3.08594 21.5067 4.43359 20 5.33203 18.48C6.23047 16.96 6.86198 15.6 7.22656 14.4H4.6875C4.24479 14.4 3.8737 14.2467 3.57422 13.94C3.27474 13.6333 3.125 13.2533 3.125 12.8C3.125 12.3467 3.27474 11.9667 3.57422 11.66C3.8737 11.3533 4.24479 11.2 4.6875 11.2H6.64062C6.27604 10.6133 5.98958 9.98667 5.78125 9.32C5.57292 8.65333 5.46875 7.94667 5.46875 7.2C5.46875 5.2 6.15234 3.5 7.51953 2.1C8.88672 0.7 10.5469 0 12.5 0C14.4531 0 16.1133 0.7 17.4805 2.1C18.8477 3.5 19.5312 5.2 19.5312 7.2C19.5312 7.94667 19.4271 8.65333 19.2188 9.32C19.0104 9.98667 18.724 10.6133 18.3594 11.2H20.3125C20.7552 11.2 21.1263 11.3533 21.4258 11.66C21.7253 11.9667 21.875 12.3467 21.875 12.8C21.875 13.2533 21.7253 13.6333 21.4258 13.94C21.1263 14.2467 20.7552 14.4 20.3125 14.4H17.7734C18.138 15.6 18.7695 16.96 19.668 18.48C20.5664 20 21.9141 21.5067 23.7109 23C24.1016 23.32 24.4141 23.7067 24.6484 24.16C24.8828 24.6133 25 25.1067 25 25.64V28.8C25 29.68 24.694 30.4333 24.082 31.06C23.4701 31.6867 22.7344 32 21.875 32H3.125ZM3.125 28.8H21.875V25.6C19.4792 23.68 17.7474 21.7 16.6797 19.66C15.612 17.62 14.8958 15.8667 14.5312 14.4H10.4688C10.1042 15.8667 9.38802 17.62 8.32031 19.66C7.2526 21.7 5.52083 23.68 3.125 25.6V28.8ZM12.5 11.2C13.5938 11.2 14.5182 10.8133 15.2734 10.04C16.0286 9.26667 16.4062 8.32 16.4062 7.2C16.4062 6.08 16.0286 5.13333 15.2734 4.36C14.5182 3.58667 13.5938 3.2 12.5 3.2C11.4062 3.2 10.4818 3.58667 9.72656 4.36C8.97135 5.13333 8.59375 6.08 8.59375 7.2C8.59375 8.32 8.97135 9.26667 9.72656 10.04C10.4818 10.8133 11.4062 11.2 12.5 11.2Z" fill="white"/>
</svg>
